<svg width="33" height="23" viewBox="0 0 33 23" fill="none" xmlns="http://www.w3.org/2000/svg">
<path d="M0.285156 1.04545C0.285156 0.467841 0.796871 0 1.42801 0H31.1423C31.7709 0 32.2852 0.467841 32.2852 1.04545C32.2852 1.62307 31.7709 2.09091 31.1423 2.09091H1.42801C0.796871 2.09091 0.285156 1.62307 0.285156 1.04545ZM0.285156 11.5C0.285156 10.925 0.796871 10.4545 1.42801 10.4545H31.1423C31.7709 10.4545 32.2852 10.925 32.2852 11.5C32.2852 12.075 31.7709 12.5455 31.1423 12.5455H1.42801C0.796871 12.5455 0.285156 12.075 0.285156 11.5ZM31.1423 23H1.42801C0.796871 23 0.285156 22.5295 0.285156 21.9545C0.285156 21.3795 0.796871 20.9091 1.42801 20.9091H31.1423C31.7709 20.9091 32.2852 21.3795 32.2852 21.9545C32.2852 22.5295 31.7709 23 31.1423 23Z" fill="#FFFF39"/>
</svg>
